<?xml version="1.0" encoding="UTF-8" standalone="no"?>
<!-- Generator: Adobe Illustrator 16.0.0, SVG Export Plug-In . SVG Version: 6.00 Build 0)  -->

<svg
   xmlns:dc="http://purl.org/dc/elements/1.1/"
   xmlns:cc="http://creativecommons.org/ns#"
   xmlns:rdf="http://www.w3.org/1999/02/22-rdf-syntax-ns#"
   xmlns:svg="http://www.w3.org/2000/svg"
   xmlns="http://www.w3.org/2000/svg"
   xmlns:sodipodi="http://sodipodi.sourceforge.net/DTD/sodipodi-0.dtd"
   xmlns:inkscape="http://www.inkscape.org/namespaces/inkscape"
   version="1.1"
   id="Capa_1"
   x="0px"
   y="0px"
   width="870px"
   height="870px"
   viewBox="0 0 870 870"
   style="enable-background:new 0 0 870 870;"
   xml:space="preserve"
   sodipodi:docname="hard-disk-utility-gnome-plafonlinux.svg"
   inkscape:version="0.92.4 5da689c313, 2019-01-14"><metadata
   id="metadata45"><rdf:RDF><cc:Work
       rdf:about=""><dc:format>image/svg+xml</dc:format><dc:type
         rdf:resource="http://purl.org/dc/dcmitype/StillImage" /><dc:title /></cc:Work></rdf:RDF></metadata><defs
   id="defs43" /><sodipodi:namedview
   pagecolor="#262626"
   bordercolor="#666666"
   borderopacity="1"
   objecttolerance="10"
   gridtolerance="10"
   guidetolerance="10"
   inkscape:pageopacity="0"
   inkscape:pageshadow="2"
   inkscape:window-width="1920"
   inkscape:window-height="1020"
   id="namedview41"
   showgrid="false"
   inkscape:zoom="0.54252874"
   inkscape:cx="122.788"
   inkscape:cy="342.75476"
   inkscape:window-x="0"
   inkscape:window-y="0"
   inkscape:window-maximized="1"
   inkscape:current-layer="layer2" />

<g
   id="g10">
</g>
<g
   id="g12">
</g>
<g
   id="g14">
</g>
<g
   id="g16">
</g>
<g
   id="g18">
</g>
<g
   id="g20">
</g>
<g
   id="g22">
</g>
<g
   id="g24">
</g>
<g
   id="g26">
</g>
<g
   id="g28">
</g>
<g
   id="g30">
</g>
<g
   id="g32">
</g>
<g
   id="g34">
</g>
<g
   id="g36">
</g>
<g
   id="g38">
</g>
<g
   inkscape:groupmode="layer"
   id="layer1"
   inkscape:label="Layer 1"
   style="display:inline"><rect
     style="opacity:1;fill:#000000;fill-opacity:1;stroke:none;stroke-width:37.10400009;stroke-linecap:square;stroke-linejoin:round;stroke-miterlimit:4;stroke-dasharray:none;stroke-opacity:0.99245288;paint-order:stroke fill markers"
     id="rect858"
     width="554.80933"
     height="816.54663"
     x="152.98729"
     y="20.275423"
     rx="8"
     ry="8" /></g><g
   inkscape:groupmode="layer"
   id="layer2"
   inkscape:label="Layer 2"
   style="display:inline"><g
     id="g8"
     style="fill:#ffffff;opacity:0.737">
	<g
   id="g6"
   style="fill:#ffffff">
		<path
   d="m 180,870 h 510 c 27.6,0 50,-22.4 50,-50 V 50 C 740,22.4 717.6,0 690,0 H 180 c -27.6,0 -50,22.4 -50,50 v 770 c 0,27.6 22.4,50 50,50 z m 473.9,-61.4 c -16.601,0 -30,-13.399 -30,-30 0,-16.6 13.399,-30 30,-30 16.6,0 30,13.4 30,30 0,16.6 -13.4,30 -30,30 z m 0,-740.6 c 16.6,0 30,13.4 30,30 0,16.6 -13.4,30 -30,30 -16.601,0 -30,-13.4 -30,-30 0,-16.6 13.4,-30 30,-30 z M 435,90.4 c 129.6,0 234.7,105.1 234.7,234.7 0,129.6 -105.1,234.7 -234.7,234.7 -20.4,0 -40.2,-2.6 -59.1,-7.5 L 420,477.5 c 13.1,-22.2 -12,-47.4 -34.2,-34.2 l -102.3,60.3 c -0.2,0.101 -0.3,0.2 -0.4,0.301 -50.6,-43 -82.7,-107.2 -82.7,-178.8 C 200.3,195.5 305.4,90.4 435,90.4 Z M 222.1,68 c 16.6,0 30,13.4 30,30 0,16.6 -13.399,30 -30,30 -16.601,0 -30,-13.4 -30,-30 0,-16.6 13.4,-30 30,-30 z m 0,680.6 c 16.6,0 30,13.4 30,30 0,16.601 -13.399,30 -30,30 -16.601,0 -30,-13.399 -30,-30 0,-16.5 13.4,-30 30,-30 z"
   id="path2"
   inkscape:connector-curvature="0"
   style="fill:#ffffff" />
		<circle
   cx="435"
   cy="325.10001"
   r="62.700001"
   id="circle4"
   style="fill:#ffffff" />
	</g>
</g></g></svg>