<?xml version="1.0" encoding="UTF-8" standalone="no"?>
<svg
   xmlns:dc="http://purl.org/dc/elements/1.1/"
   xmlns:cc="http://creativecommons.org/ns#"
   xmlns:rdf="http://www.w3.org/1999/02/22-rdf-syntax-ns#"
   xmlns:svg="http://www.w3.org/2000/svg"
   xmlns="http://www.w3.org/2000/svg"
   xmlns:sodipodi="http://sodipodi.sourceforge.net/DTD/sodipodi-0.dtd"
   xmlns:inkscape="http://www.inkscape.org/namespaces/inkscape"
   width="64"
   height="64"
   version="1"
   id="svg22"
   sodipodi:docname="system_monitor.svg"
   inkscape:version="0.92.4 5da689c313, 2019-01-14">
  <metadata
     id="metadata28">
    <rdf:RDF>
      <cc:Work
         rdf:about="">
        <dc:format>image/svg+xml</dc:format>
        <dc:type
           rdf:resource="http://purl.org/dc/dcmitype/StillImage" />
        <dc:title></dc:title>
      </cc:Work>
    </rdf:RDF>
  </metadata>
  <defs
     id="defs26" />
  <sodipodi:namedview
     pagecolor="#ffffff"
     bordercolor="#666666"
     borderopacity="1"
     objecttolerance="10"
     gridtolerance="10"
     guidetolerance="10"
     inkscape:pageopacity="0"
     inkscape:pageshadow="2"
     inkscape:window-width="1920"
     inkscape:window-height="1020"
     id="namedview24"
     showgrid="false"
     inkscape:zoom="10.429825"
     inkscape:cx="23.307438"
     inkscape:cy="32.997735"
     inkscape:window-x="0"
     inkscape:window-y="0"
     inkscape:window-maximized="1"
     inkscape:current-layer="layer1" />
  <rect
     style="fill:#4f4f4f"
     width="44"
     height="20"
     x="10"
     y="22"
     id="rect2" />
  <path
     style="opacity:0.2"
     d="m 5.8898,23 c -0.2494,0.656 -0.4786,1.322 -0.6796,2 l 53.58,0 c -0.204,-0.678 -0.434,-1.344 -0.682,-2 l -52.22,0 z M 5.2102,41 c 3.4314,11.58 14.067,20 26.788,20 12.722,0 23.358,-8.42 26.79,-20 l -0.68,0 c -4.01,10.536 -14.134,18 -26.11,18 -11.976,0 -22.1,-7.464 -26.11,-18 l -0.678,0 z"
     id="path4" />
  <path
     style="fill:#e4e4e4"
     d="M 31.9992,4 C 19.2772,4 8.6412,12.4206 5.2112,24 l 53.578,0 C 55.3572,12.4206 44.7212,4 31.9992,4 Z M 5.2112,40 c 3.4314,11.58 14.067,20 26.788,20 12.722,0 23.358,-8.42 26.79,-20 l -53.58,0 z"
     id="path6" />
  <circle
     style="opacity:0.2"
     cx="31.999"
     cy="33"
     r="6"
     id="circle8" />
  <circle
     style="opacity:0.2"
     cx="45.999"
     cy="33"
     r="6"
     id="circle12" />
  <circle
     style="opacity:0.2"
     cx="17.997"
     cy="33"
     r="6"
     id="circle16" />
  <path
     style="opacity:0.2;fill:#ffffff"
     d="M 32 4 C 19.278 4 8.6409375 12.4206 5.2109375 24 L 5.5507812 24 C 9.2858824 12.943885 19.650713 5 32 5 C 44.349287 5 54.712288 12.943885 58.449219 24 L 58.789062 24 C 55.357062 12.4206 44.722 4 32 4 z M 5.2109375 40 C 5.3114375 40.339 5.4371813 40.66675 5.5507812 41 L 58.451172 41 C 58.564922 40.66675 58.690016 40.339 58.791016 40 L 5.2109375 40 z"
     id="path20" />
  <rect
     style="fill:#4f4f4f;fill-opacity:1;stroke:none;stroke-width:7.80000019;stroke-linecap:square;stroke-linejoin:round;stroke-miterlimit:4;stroke-dasharray:none;stroke-opacity:1;paint-order:stroke fill markers"
     id="rect835"
     width="42.18671"
     height="13.710681"
     x="10.642556"
     y="25.648445"
     rx="8"
     ry="8" />
  <g
     inkscape:groupmode="layer"
     id="layer1"
     inkscape:label="Layer 1">
    <path
       style="fill:none;stroke:#ffffff;stroke-width:1px;stroke-linecap:butt;stroke-linejoin:round;stroke-opacity:1"
       d="M 9.9714041,32.16821 H 23.873843 l 2.684608,-6.519764 5.465097,13.614801 3.259882,-7.095037 h 18.696383"
       id="path840"
       inkscape:connector-curvature="0" />
  </g>
</svg>
